/* XPM */
static char * FreeFactoryIconTrans_01_128x128_xpm[] = {
"128 128 46 1",
" 	c None",
".	c #000000",
"+	c #010100",
"@	c #020200",
"#	c #02000B",
"$	c #02000A",
"%	c #020009",
"&	c #010009",
"*	c #000003",
"=	c #000004",
"-	c #000208",
";	c #000106",
">	c #000105",
",	c #000206",
"'	c #000002",
")	c #000207",
"!	c #000103",
"~	c #000104",
"{	c #000001",
"]	c #000205",
"^	c #010006",
"/	c #000107",
"(	c #000005",
"_	c #01000A",
":	c #000204",
"<	c #000305",
"[	c #000304",
"}	c #010005",
"|	c #000405",
"1	c #000506",
"2	c #000406",
"3	c #000203",
"4	c #00020A",
"5	c #000209",
"6	c #010007",
"7	c #000006",
"8	c #000108",
"9	c #000102",
"0	c #010008",
"a	c #020008",
"b	c #030300",
"c	c #000301",
"d	c #000100",
"e	c #000201",
"f	c #000402",
"g	c #000302",
"                                                                                                                                ",
"                                                                                                                                ",
"                                                                                                                                ",
"                                                                   ..                                                           ",
"                                                                .....                                                           ",
"                                                            .........                                                           ",
"                                                         ...    .....                                                           ",
"                                                      ...        .....                                                          ",
"                                                   ....           ....                                                          ",
"                                                ........           ...                                                          ",
"                                             ............           ..                                                          ",
"                                         ....   ...........          .                                                          ",
"                                      ...        ...........         .                                                          ",
"                                   ...            ...........     ++                                                            ",
"                                .......            ..........+ @+                                                               ",
"                             ...........             .........                                                                  ",
"                          ................            ......                                                                    ",
"                       ...    .............           ...                                                                       ",
"                   ....        .............        ..                                                                          ",
"                ...              .............   ..                                                                             ",
"             ......               ..............                #$#                                                             ",
"          ...........              ...........               %&$$                                                               ",
"       ...............               ......                *=-;;            >>,                                                 ",
"    ....................             ...                  =*')            !!!!!!>                                               ",
"  .......................         ...                   =*''            ,!!!!!!!!~                                              ",
" .....  ...................     ..                     =''              !!!!!!!!!!                                              ",
" ....    .......................                     **''              !!!!!!!!!!!~                                             ",
" ...      ...................                       {''*              >!!!!!!!!!!!!                                             ",
" ....    .................                         .{'*               !!~~~~~~~~~!!]                                            ",
" ....   ...............                           ..{*                !!~!~~~~~~!!!~                                            ",
" ...................                             *''*                 !!!!!~~~~!!!!~                                            ",
" .................                               *'*                  !!!!!!!!!!!!!~                                            ",
"  .................                             *''                  )!!!!~~~~~~~~!]                                            ",
"  ..................                           *''*=~                 !~~!!!!!!!!!!      ]!!!,                                  ",
"  ...................       ................{  ''*                    !!!!!!!!!!!!!     !!!!!!^                                 ",
"  ..............................     .......' *''          ~~;/       !!!~~~!!!!!!!    !!!!!!!(_                                ",
" ...........................        ........ *''         !!!!;;>/     ~~~!!!!!!~~!    ~!!!~!!!^^                                ",
" ..........................         ........ *''       >!!!!!;;>>;     !!!!!!!!!!~    !~!!!!!!^^&                               ",
" ...............  ........         ........ .{{       >!!!!!!>>~>~,    ;~~~~~~~~~    >:<<[<[[:=}}                               ",
" .....   ......    ......         ......... @+.       !!!!!!!~!~!!!     />;;;;>;     ;||1211123'*                               ",
" .....    ....     .....         ...........++.      >!!!!~!~!~~!!!>     4/;;;5      >2||111113'*                               ",
" ....     .....    ....         .......... .++.'*    ~!!!!!!!!~!!!!!                5>12|121123'*                               ",
"  ....    .....   .....         .......... .++      &!!!!~!!!~!!!!!!                /;21|12111!'=                               ",
"  ....  ...............  ...................+       6!!!!~!!~!!!~!!!                ->21|11111!'                                ",
"  ....................................... ..+       7~!!~~!!~!!~!!!!                5>111|1211!'                                ",
"  ....................................... ..@       ^~!!~~!!!!!!!!!~                 >211|1|11!*                                ",
"  ..........................................        (!!!!!!~!!~!!!!!            5    ;||2<||2|!                                 ",
"  ...................................... ...        !!!!~!!!!!~!!!!>       ,!~   -   5!!!!!!!!                                  ",
"  ...................................... ...        ~!!!~!!~!!~!!!!        !~~5   5   !!!!!!!]                                  ",
"  ...................................... ...        ,!!!!!~!!~!!!!~        *!~    8    >!!!!                                    ",
"  ...................................... ...!~       !~~!!~!!~!!!!          !;    5                                             ",
"  ...................................... ..           !!!!~!!!~!!                 5                                             ",
"  ...............................   .... ..           >!!!!!!!!!]     ]!!      48 4                                             ",
"  ......................      .............            ,!!!!!!!       !!*  ~~  ;>54                                             ",
"  .............       .....................              ,~~]         !!!  !~ -;;8       ~~*~                                   ",
"   .....       ............................                           ;>- 8 ) ->; 4    >!!!!!!                                  ",
"   ........................................                                    8  4   ~!!!!!!!*                                 ",
"   ........................................                                5          !!~!!~~!'=                                ",
"   ........................................                               >>5        ;!!!!!!!!'*                                ",
"   .........................................;              ;;!!~         ;;>/        >!~!!!!~''*                                ",
"   ........................................              />>>!!!!,       ;>>        /;!!!!!!!!'*                                ",
"   ...........................   ...........            ;>;;>!!!!!,       ;-        >;!!!!!~'!{*              ...     ..        ",
"   ...................     .................           ;;;;;;~!!!!!                 >;!!!!~~'!**    {{{.........................",
"   ............      .......................          >~>~>~~~!!!!!,                ~>!!!!~!!!'{   .............................",
"   ......      .............................          !~!!!!!!~!!!!~                !!!!!~~!!'{    .............................",
"   .........................................         !!!~~!!!!~~!!!~                !!!!!~~!'!.    .............................",
"   .........................................!        !!~!!!~!!!~!!!~                !!~!~!!!!!  ................................",
"   .........................................']      ]!!~!!!!~!!~!!!!       ~!!~,    ~!!!!!!!!   ................................",
"   .........................................']]     ~!!!!~!!~!!!!!!~     ~!!!!!!~    !!!!!!!~   ............................... ",
"    ............................  ..........9~      ~!!!!~!!!~!!!!!,    ~!!!!!!!!]    ~!!!!    ................................ ",
"    ......................   .. ............!!      ~!!!!!!~!!~!!!!    ~!!!!!!!!!!      ,      ........... .. .......  ....     ",
"    ................     ...... ............!!!     ~!!!!!!!!!!!!!~    !~~~~~!!!!!             .......  .       ...             ",
"    ...........     ........... ............'*'     ~!!!!!!!!!!!!!    !!!~!!!!!~!!,             .....                           ",
"    .....     ................. ............'**'     !!!!!!~!!~!!>    !!!!!!!!!!!!]                                             ",
"    ........................... ............{**'*    ~!!!!!!!~!!~    ~!!!!!~~!!!!!,                                             ",
"    ........................... ............{'**'*    ~!!!!!!!!>     ~~!!!!!!!!!!!             .....                            ",
"    ........................... ............{''*''*    :!!!!!!       !!~!!!!!!!!!!             .....                            ",
"    ........................... ............{'''*''      ,~]        ,!!!!!!!!!!!!]             .....                            ",
"    ........................................{''''*'*                ,!!!!!!!!!!!*              .....                            ",
"    ........................................{''''**'=                ~!~!!!!!!!!~             ......                            ",
"    ................................................*%               >!!!!!!!!''              ......                            ",
"    ................................................=0#              ,!!!!!!!!'               ......                            ",
"    ................................................*a0%             )~!!!!!!!  ==            ......                            ",
"    ................................................{**==            ),]!!!~] ==              ......                            ",
"     .............................. ................{*****   4   4444),,    ,>=  =            ......                            ",
"     ....................        ..       ... .......{{{{{{{    44445),,]]],   =              .......                           ",
"     ................            . ..        ................;5       ,,                      .......                           ",
"     ...........                 .  .       ........+b@@@@@@+>;;/8-55),]],                    .......                           ",
"     ......                      .   .     ..........++++++++{*******'9                       .......                           ",
"     .                               .    ........................                            .......                           ",
"                                     .  ........ ........                                     .......                           ",
"                                     ......... .....                                         ........                           ",
"                                      ...........                                            ........                           ",
"                                      . ........                                             ........                           ",
"                                         .....                                               ........                           ",
"                                        ....                                                 . ......                           ",
"                                                                                             .. .....                           ",
"                                                                                             ... ....                           ",
"                                                                                             .... ....                          ",
"                                                                                        c    d..dc e..                          ",
"                                                                                   ..dddd    ddddecf..                          ",
"                                                                             .......d...d    deeddeg..                          ",
"                                                                        ..............dd.   geddeede.                           ",
"                                                                  ..................deedd  ceeedeeed..                          ",
"                                                               .....................eeeededddedeeeee...                         ",
"                                                               .....................deedddeeeedeeeee....                        ",
"                                                               .....................eeddeeededdeeeee.....                       ",
"                                                               .....................eeedeeeedeeeeeee......                      ",
"                                                               ...    .    ..          ededddeeeedde.......                     ",
"                                                               ...    .    ..          deedeedeeedde........                    ",
"                                                               ...    .    ..          dede    eg   ..    ..                    ",
"                                                               ...    .    ..          eeec    e     .    ...                   ",
"                                                               ...    .    ..    ..    edec    e    ..    ....                  ",
"                                                               ...    .    ...   ..   feeedgcccdcgcc..........                  ",
"                                                               ...    .    ..          eeeeccceeecce..........                  ",
"                                                               ...    .    ..          ....    .    ..    ....                  ",
"                                                               ...    .    ..          ....    .    ..    ....                  ",
"                                                               ...    .    ..    ..    ....    ..   ..    ....                  ",
"                                                               ... .. . .. ....  ..  .........................                  ",
"                                                               ...    .    ..          ....   ...   ..    ....                  ",
"                                                               ...    .    ..          ....    .    ..    ....                  ",
"                                                               ...    .    ..          ....    .     .    ....                  ",
"                                                               ...    .    ..          ....   ...   ..   .....                  ",
"                                                               ...............................................                  ",
"                                                               ...............................................                  ",
"                                                               ...............................................                  ",
"                                                               ...............................................                  ",
"                                                               ...............................................                  "};
