/* XPM */
static char * FreeFactoryIcon18_128x128_xpm[] = {
"128 128 28 1",
" 	c None",
".	c #000000",
"+	c #000003",
"@	c #000004",
"#	c #000001",
"$	c #000002",
"%	c #010005",
"&	c #010007",
"*	c #010004",
"=	c #010006",
"-	c #030001",
";	c #020000",
">	c #070002",
",	c #060001",
"'	c #050001",
")	c #010000",
"!	c #020001",
"~	c #010001",
"{	c #000101",
"]	c #010003",
"^	c #060002",
"/	c #040001",
"(	c #050002",
"_	c #000402",
":	c #000201",
"<	c #000100",
"[	c #000301",
"}	c #000302",
"                                                                                                                                ",
"                                                                                                                                ",
"                                                                                                                                ",
"                                                                                                                                ",
"                                                                                                                                ",
"                                                                                                                                ",
"                                                                                                                                ",
"                                                                                                                                ",
"                                                                                                                                ",
"                                     ................                                                                           ",
"                                 .......          ......                                                                        ",
"                               ....                    ....                                                                     ",
"                             ...          ..  ..          ...                                                                   ",
"                           ..                               ...                                                                 ",
"                                                                                                                                ",
"                                                                                                                                ",
"                                        +@@@@@@@++                                                                              ",
"                                    #$++++++@+++++++$$                                                                          ",
"                                    $$++++++++++++++$$                                                                          ",
"                                   $$$++++++@@++++++$$+                                                                         ",
"                                   #$$++++++++++++++$$$                                                                         ",
"                                  .#$$++++++++++++++$$$                                                                         ",
"                                  .#$$$++++++++++++$$$$#                                                                        ",
"                                  .#$$$++++++++++++$$$$#                                                                        ",
"                                  .#$$$+++++++++++$$$$$                                                                         ",
"                                   #$$$$++++++++++$$$$$                                                                         ",
"                                   $$$$$$+++++++$$$$$$$                                                                         ",
"                     ++++++@       $$$$$$$$$++$$$$$$$$+       ++++++#                                                           ",
"                     %%%%%%%%@      $$$$$$$$$$$$$$$$$$      &%%%%%%%+                                                           ",
"                     *%%%%%%%%*     @$$@@$$$$$$$$+@+$     **=%%%%%==%                                                           ",
"                    $*%%%%%%%=%$     +$==+$$$$$$$%=+@    &%%%%%%%%%%%+                                                          ",
"                    $*%%%%%%%=%%$     +$%+$$$$$$$*@@     *%%%%%%%%%%%+                                                          ",
"                   $$*%%%%%%%%%=%%      $$$$$$$$$+      =%%%%%%%%%%%%+$                                                         ",
"                   $$@***%%%%%%==%        $$$$$        &=%%%%%%%%****+$                                                         ",
"                  .$$$$$$*%%%%%%%%=                    *%%%%%%%%%+$$$$$#                                                        ",
"                  .$$$$$$*%%%%%%%%%                    *%%%%%%%%%+$$$$+#                                                        ",
"                  .$$$$$$*%%%%%%%%%                    *%%%%%%%%%+$$$$+#                                                        ",
"                  #++$$$$@%%%%%%%%%     -        ;    #*%%%%%%%**+$$$++$                                                        ",
"                 +++++$$$$%%=%%%%%%     >-      ,'     *%%%%%%%$$$$$++++@                                                       ",
"                 $++++$$$$%%=%%%%%%                    *%%%%%%%$$$$$+++++                                                       ",
"                 $++++$$$$%%=%%%%%%       ...)!!       *%%%%%%%$$$$$+++++                                                       ",
"                 $+++$$$$+=%%%%%%%=      ....~~.{      %%%%%%%%$$$$$+++++                                                       ",
"                 $++$$$$$%=%%%%%%%       ........       =%%%%%%$$$$$$$+++                                                       ",
"                 $$$$$$$$%=%%%%%%@      .........       @%%%%%%$$$$$$$$$$                                                       ",
"                 $$$$$$$$%%%%%%%%       ..........       *%%%%%$$$$$$$$$$                                                       ",
"                  $$$$$$$*%%%%%*         ........         *%%%%+@$$$$$##                                                        ",
"                   $$+]]*%%%%=&      '^  ........  />      *=====*]]$#.                                                         ",
"                    +%%%%++@*        -(   ......   -'        ====%%%%                                                           ",
"                        %                  ....                                                                                 ",
"                                                                                                                                ",
"                                                                                                                                ",
"                             +$$$$$+        !)        +$$$$$+                                                                   ",
"                           @=%%%%%%%%&      !)      &%%%%%%%%%=                                                                 ",
"                          $*=%%%%%%%%==            *=%%%=%%%%=%+                                                                ",
"                         *%%%%%%%%%%%==$          %%%%%%=%%%%%%%%                                                               ",
"                        $*%%%%%%%%%%%**$$        *%%%%%%%%%%%%%%%+                                                              ",
"                       @=%%%%%%%%%%%%+#*=+      &%%%%%%%%%%%%%%%%%&                                                             ",
"                       *=%*******%%%%++*=@      =%%%%%%%%****%%%%=%                                                             ",
"                      #%%+$$$$$$$*%%%%%%%%&    %%%%%%%%%%+$$$*%%%%@                                                             ",
"                      ]%]$$$$$$$$@***%%%%%=    *%%%%%****+$$$@***%$+                                                            ",
"                      *%$$$$$$$$$$$$$*%%%%%    *%%%%%+$$$$$$$$$$$*+$                                                            ",
"                      %*$$$$$$$$$$$$+*%%%%%    *%%%%%+$$$$$$$$$$$*+$                                          ...     ..        ",
"                       $=+$$+$$$$$$*%%%%%%%    *%%%%%+$$$$$$$+$$$..                                 ............................",
"                        $$$++++$$$$*%%%%%%%    *%%%%%+$$$$$++++$$#                                 .............................",
"                         ++++++$$$$*%%%%%%&    %%%%%%+$$$$++++++$                                  .............................",
"                          ++++++$$$*%%%%%%     &%%%%%++$$$++++$$                                   .............................",
"                           ++++$$$$*%%===@      =%%%%%%$$$$++#.                                 ................................",
"                            @++$$$$*%=%%*        %%%%%%$$$$++                                   ................................",
"                              +$$$$%%=%+#        =%%%%%$$$$$                                    ............................... ",
"                               $$++%%%%$          =%%%*$$$$++#..                                ............................... ",
"                                 ****+              =+$$$#....                                 ........... .. .......  ....     ",
"                                   #                  +++#..                                   .......  .       ...             ",
"                                                                                                .....                           ",
"                                                                        ..                                                      ",
"                                                                        .  ..                                                   ",
"                                                                        .     .                .....                            ",
"                                                                     . .                       .....                            ",
"                                                                       .         .      ..     .....                            ",
"                                                                         .       .    .....    .....                            ",
"                                                                          .      .        .   ......                            ",
"                                                                                ..        .   ......                            ",
"                                                                                ..        .   ......                            ",
"                                                                                   ........   ......                            ",
"                                                                                      .....   ......                            ",
"                                                                                              ......                            ",
"                                                                                              .......                           ",
"                                                                                              .......                           ",
"                                                                                              .......                           ",
"                                                                                              .......                           ",
"                                                                                              .......                           ",
"                                                                                              .......                           ",
"                                                                                              .......                           ",
"                                                                                             ........                           ",
"                                                                                             ........                           ",
"                                                                                             ........                           ",
"                                                                                             . ......                           ",
"                                                                                             .. .....                           ",
"                                                                                             ... ....                           ",
"                                                                                             .... ....                          ",
"                                                                                        _    :<<:[ :..                          ",
"                                                                                   .<::::    <::<:[_..                          ",
"                                                                             .......:<<<:    <::<<:}..                          ",
"                                                                        ............<<::<   }:<<::<:.                           ",
"                                                                   .................<::<<  [:::<:::<..                          ",
"                                                               .....................::::<:<<<:<:::::...                         ",
"                                                               .....................<::<<<::::<:::::....                        ",
"                                                               .....................::<<:::<:<<:::::.....                       ",
"                                                               .....................:::<::::<:::::::......                      ",
"                                                               ...    .    ..          :<:<<<::::<<:.......                     ",
"                                                               ...    .    ..          <::<::<:::<<:........                    ",
"                                                               ...    .    ..          <:<:    :}   ..    ..                    ",
"                                                               ...    .    ..          :::[    :     .    ...                   ",
"                                                               ...    .    ..    ..    :<:[    :    ..    ....                  ",
"                                                               ...    .    ...   ..   _:::<}[[[<[}[[..........                  ",
"                                                               ...    .    ..          ::::[[[:::[[:..........                  ",
"                                                               ...    .    ..          ....    .    ..    ....                  ",
"                                                               ...    .    ..          ....    .    ..    ....                  ",
"                                                               ...    .    ..    ..    ....    ..   ..    ....                  ",
"                                                               ... .. . .. ....  ..  .........................                  ",
"                                                               ...    .    ..          ....   ...   ..    ....                  ",
"                                                               ...    .    ..          ....    .    ..    ....                  ",
"                                                               ...    .    ..          ....    .     .    ....                  ",
"                                                               ...    .    ..          ....   ...   ..   .....                  ",
"                                                               ...............................................                  ",
"                                                               ...............................................                  ",
"                                                               ...............................................                  ",
"                                                               ...............................................                  ",
"                                                               ...............................................                  "};
