/* XPM */
static char * FreeFactoryIconTrans_12_128x128_xpm[] = {
"128 128 9 1",
" 	c None",
".	c #000000",
"+	c #000100",
"@	c #000201",
"#	c #000101",
"$	c #000301",
"%	c #000302",
"&	c #000200",
"*	c #000402",
"                                                                                                                                ",
"                                                                                                                                ",
"                                                                                                                                ",
" ............                                      ............                                                                 ",
"   ...      .                                        ...      .                        ...                                      ",
"   ...      .                                        ...      .                        ...                                      ",
"   ...                                               ...                               ...                                      ",
"   ...    .   ....  ...   .....      .....           ...    .   ......        .....   .......    .....    ....  .......   ...   ",
"   ...    .    .....  . ...  ...   ...  ...          ...    .   ..  ....    ...   ..   ...     ...  ...    .....  ....     .    ",
"   ........    ....   . ...  ....  ...  ....         ........   .    ...    ...    .   ...     ...   ...   ....   .....   .     ",
"   ...    .    ....    ...    ... ...    ...         ...    .        ...   ....        ...    ....   ...   ....     ...   .     ",
"   ...    .    ...     .......... ..........         ...    .    .......   ...         ...    ...    ...   ...      ...  ..     ",
"   ...         ...     ....       ....               ...       ....  ...   ...         ...    ...    ...   ...       ... .      ",
"   ...         ...     ....       ....               ...       ....  ...   ....        ...    ....   ...   ...       .....      ",
"   ...         ...      ...    ..  ...    ..         ...       ....  ...    ...    .   ...   . ...   ...   ...        ...       ",
"   ...         ...      ...   ..   ...   ..          ...       ....  ...    ...   ..   .... .. ...  ...    ...        ...       ",
" .......      ......      .....      .....         .......      .... ....     ....      .....    .....    ......      ...       ",
"                                                                                                                       .        ",
"                                                                                                                       .        ",
"                                                                                                                   .  ..        ",
"                                                                                                                   ....         ",
"                                                                                                                                ",
"                                                                                                                                ",
"                                                                                                                                ",
"                                                                                                                                ",
"                            .....                                                           ......                              ",
"                       ...............                                                 ................                         ",
"                    .....           .....                                            .....           .....                      ",
"                  ....                 ....                                       ....                  ....                    ",
"                ...                       ...                                    ...                      ....                  ",
"               ..      ..           ...     ...                                ...     ...           ..     ...                 ",
"             ...    ... .           . ...    ...                              ...    ..  .          .. ...    ...               ",
"            ...   ..     .          .    ..    ..                            ..    ..    .          .    ...   ...              ",
"           ..    ..      .         .       .    ..                          ..   ..       .         .      ..   ...             ",
"          ..    .        .         .        ..   ..                        ..   ..        .         .        .    ..            ",
"         ..   ..         .         .         ..   ..                      ..   ..         .        .          .   ...           ",
"        ..   ..           .       .           ..   ..                    ..   .           .        .           .   ..           ",
"        ..  ..            .       .            ..  ..                   ..   .             .       .            .   ..          ",
"       ..   .             .       .             ..  ..                  ..  ..             .       .             .   ..         ",
"       .   .              .       .              .   ..                ..   .              .      .               .  ..         ",
"      ..  .                .     .                .  ..                ..  .               .      .               ..  ..        ",
"      .   .              ...      ..              .   ..              ..  ..              ..      ...              .   .        ",
"     ..  .             ..           ..             .  ..              ..  .             ..           ..             .  ..       ",
"     .   .            ..    .....     .            .   .             ..  .             .     .....    ..            .  ..       ",
"    ..  .            .    .........    .            .  ..            ..  .            .   ..........   ..           ..  .       ",
"    ..  .           ..  ...       ...   .           .  ..            .   .           .   ...       ...  ..           .  ..      ",
"    .   .           .  ...          ..  .           .   .            .  ..          ..  ..          ...  .           .  ..      ",
"    .    ....      .   ..            ..  .      ....    ..          ..   ....       .  ..            ..   .      ....    .      ",
"   ..       ....   .  ..             ..  .   ...        ..          ..       ....  .   .              ..  .  ....        .      ",
"   ..           ...   .               ..  ...           ..          ..           ...  ..               .  ...            ..     ",
"   ..                ..               ..                ..          .                 ..               ..                ..     ",
"   ..                ..                .                ..          .                 .                ..                ..     ",
"   ..                ..                .                ..          .                 .                ..                ..     ",
"   ..                ..                .                ..          .                 .                ..                ..     ",
"   ..                ..               ..                ..          .                 .                ..                ..     ",
"   ..                ..               ..                ..          ..                ..               ..                ..     ",
"   ..          .....  .               .   ....          ..          ..          ....  ..              ..  .....          .      ",
"    .      ....    .  ..             ..  .    ....      ..          ..      ....    .  ..             ..  .    ....      .      ",
"    .   ....       .   ..           ..   .        ...   .           ..   ...        .   ..           ..  ..        ...   .      ",
"    ..  .           .   ..         ..   .           .   .            .  ..           .  ...         ..   .           .  ..      ",
"    ..  .            .   ...     ...   ..           .  ..            ..  .           ..   ...    ....   .            .  ..      ",
"     .  ..           ..   .........   ..            .  ..            ..  .            ..   ........    .            .   .       ",
"     ..  .            ..             ..            .   .              .   .            ..             .             .  ..       ",
"     ..  .              ..         ..              .  ..              ..  .              ..         ..             ..  ..       ",
"      ..  .               ..     ..               .   ..              ..   .              ...     ..               .  ..        ",
"      ..   .               .      .              ..  ....................  .               .      .               .   ..        ",
"       ..  .              .       .              .   .                 ..   .              .      ..             ..  ..         ",
"       ..   .             .       .             .   ..                  ..   .             .       .             .   .          ",
"        ..   .            .       .            .   ..                    ..  ..            .       .            .   ..          ",
"         ..   .           .        .          .   ..                      ..  ..          .        .           .   ..           ",
"          ..   .         .         .         .   ...                      ..   ..         .         .         .   ..            ",
"           ..   ..       .         .        .   ...                        ..    .        .         .       ..   ..             ",
"           ...   ..      .         .      ..   ...                          ...   ..     ..         .      ..   ..              ",
"             ..    ..    .          .   ..    ...                            ...    ..   .          .    ..    ..               ",
"              ...    ....           ....     ..                                ..     ....           ....    ...                ",
"               ...      .           ..     ...                                  ....   ...           .      ...                 ",
"                 ...                     ...                              .....................          ....                   ",
"                   ....               ....                                ......................       ....                     ",
"                     .......     .......                                 ................................                       ",
"                        .............                                   ...............................                         ",
"                        .                                              ........................      ..                         ",
"                        .                                              .......................       ..                         ",
"               ......  ..                                              ........   .....  ..          ..                         ",
"               ..  ......                                              ....                          ..         ............    ",
"               ..  ..   .                                                                            .............        ..    ",
"               ..  ..   .                                                                            .............        ..    ",
"               ..  ..   .                                             ....                           ..         ............    ",
"               ..  ..   .                                             ....                           ..         ..        ..    ",
"               ..  ..   .                                             ....                           ..         ..        ..    ",
"               ..  ..   .                                             ....                           ..         ..        ..    ",
"               ..  ..   .                                             ....                           ..         ............    ",
"               ..  ..   .                                             ....                           ..         ..        ..    ",
"               ..  ..   .                                             .....                          ..         ..        ..    ",
"               ..  ......                                             .....                          ..         ..        ..    ",
"               ..........                                             .....                          ..         ............    ",
"               .....    .                                             .....                          ..         ..        ..    ",
"                        .                                             .....                          ..         ..        ..    ",
"                        .                                             .....                          ..         ..        ..    ",
"                        .                                            ......                          ..         ............    ",
"                        .                                            ......                          ..         ..        ..    ",
"                        .                                            ......                          ..         ..        ..    ",
"                        .                                            ......                          ..         ..        ..    ",
"                        .                                            ......                          ..         ............    ",
"                        .                                            +.+@#.                          ..         ..        ..    ",
"                        .                                     +$@@   +@+@$+.                         ..         ..        ..    ",
"                        .                                .....+++@   +@++@#.                         ..         ..        ..    ",
"                        .                          ...........++@+  %@+@@+.                          ..         ............    ",
"                        .                      ...............+@@+@++@+@@@..                         ..         ..        ..    ",
"                        .                      ...............+@+++@@@+@@@+..                        ..         ..        ..    ",
"                        .                      ...............#@+@@@+@@@@@....                       ..         ..        ..    ",
"                        .                      ..   .  ...  .   $+@++@@@+@.....                      ..         ............    ",
"                        .                      ..   .   .       $@@@$@@@&@+.....                     .............        ..    ",
"                        .                      ..   .   .       *@@*  %%   .   ..                    ..         ............    ",
"                        .                      ..   .   .       %@@   *%   .   ...                   ..         ............    ",
"                        .                      ..   .   .   .   %@@@$$@@$$+.......                   ..                         ",
"                        .                      ..   .   .       @++#  ##  ..  ....                   ..                         ",
"                        .                      ..   .   .       ...   ..   .   ...                   ..                         ",
"                        .                      ..   .  ...  ..  ....  ..  ..  ....                   ..                         ",
"                        .                      ..   .   .       ..................                   ..                         ",
"                        .                      ..   .   .       ...   ..   .   ...                   ..                         ",
"                        .                      ..   .   .       ....  ..   .   ...                   ..                         ",
"                        .                      ...................................                   ..                         ",
"                        .                      ...................................                   ..                         ",
"                        .                      ...................................                   ..                         ",
"                        .                      ...................................                   ..                         ",
"                        ..                                                                           ..                         ",
"                        ...............................................................................                         ",
"                                                                                                                                "};
