/* XPM */
static char * FreeFactoryIcon15_128x128_xpm[] = {
"128 128 18 1",
" 	c None",
".	c #000000",
"+	c #000100",
"@	c #000200",
"#	c #010000",
"$	c #020000",
"%	c #030000",
"&	c #000101",
"*	c #010001",
"=	c #030001",
"-	c #020002",
";	c #030002",
">	c #010002",
",	c #000001",
"'	c #000402",
")	c #000201",
"!	c #000301",
"~	c #000302",
"                                                                                                                                ",
"                                                                                                                                ",
"                                                                                                                                ",
"                                                                                                                                ",
"                                                                                                                                ",
"                                                                                                                                ",
"                                                                                                                                ",
"                                                                                      .......                                   ",
"                                                                                         ....       ..                          ",
"                                                                                   .      ...        ..                         ",
"                                                                                   .       ...         .                        ",
"                                                                                  ..         ..                                 ",
"                                                                                  ....         .                                ",
"                                                                                 ... ....      ..            ..                 ",
"                                                                                ...    . .     ..              .                ",
"                                                                                ....      .   ...                               ",
"                                                                                ....      .. ...  .....                         ",
"                                                                               . ...        ..    ... ..                        ",
"                                                                               . ...        ....      ......                    ",
"                                                                               .  ...       .....   .......                     ",
"                                                                                .  ...     ++..... .......                      ",
"                                                                                .  ....    +........ .  .....                   ",
"                                                                                .   ..... ..........    .....                   ",
"                                                                                 . .  ...  .........    ..     ....             ",
"                                                                                 . .   ..   .........          ..               ",
"                                                                                 ...    ..   ...@@...   ...    .       .        ",
"                                                                                 ..... ....   ..@@...  ......           .       ",
"                                                                                  ...  .....   .  .   .........         ..      ",
"                                                                                   ..     ...         ............              ",
"                                                                               .   ..... . ...        .......   ...       .     ",
"                                                                               ..    .....  ...        ....        .      .     ",
"                                                                                .     ..     +...      ....                     ",
"                                                                                 .     ..      ...        .                     ",
"                                                             ........            ..     ..       ...                            ",
"                                                             ..   ....#$$    .     ..    ..         ..                          ",
"                                                             ..          #.#.....   ..     .           .                        ",
"                                                             ...          +  ...........    .                                   ",
"  ....                                                       ...++@            .........                                        ",
"  .......                                                    ......@             ...##..                      .                 ",
"   .........                                                 .  ......           .                .                             ",
"  ..... ........                                             .  ........                            ..                          ",
"  ....   ..........                                         ..............                              .                       ",
"  ....   .............                                      .................                                                   ",
"  ....   ...+   .........                                  ..  ..+   ...+.....++                                                ",
"  ..........    ............                               .   .+    ..  ..........                                             ",
"  ..........   ....   .........                            ..  .+    .     .......                                              ",
"     ..............   ...  .......                         ... .     .      .......                                             ",
"         ..........  ....  ...........                      ....     .     .+@+.....                                            ",
"            .............  ....  .........                   ....   ..     ..   +....                                           ",
"               .......... ....   .... .......                  .... ..     ..    +.....                                         ",
"                  ............   ...  ..........                .....     +.      ......                                        ",
"                  ..................  ...  ........              .....    ..      .++....                                       ",
"                  .....   ..........  ...   .....##..              ....   ..     ..  +....                                      ",
"                  ....        ...........  ...  .#$#......          .+.++...     ..    ....                                     ",
"                 .....            ............  %$#  ..  ...#.        .....      .      ....                                    ",
"                 .....               @+........#%#   ..  .......#$     .....    .+      .....                                   ",
"                 ....                   .......##.. ...  ..  ...#$$$$###.....   .@     @+ ...                                   ",
"                ....+                    ...+ .#....... ...  #.  #$ $##...##.....      ++  ..                                   ",
"                ....                    ...+     +.....$#.. $$#  ..  . ...#%#......   #.   ..                                   ",
"                ....                    ...             $#..$%$ ... .   .  #$......#$$$#.....                                   ",
"               .....                    ...               #$%####....$ %$ .  .....$$$%%###..                                    ",
"               ....                    ....                $#    ....#$$#..$......$$$$$$$...                  &&&     &&        ",
"              .....                    ...                 $$          ......###..#$$$$#....        &&&&&&&&&&&&&&&&&&&&&&&&&...",
"              .....                    ...                #$$            ..    ...#%$%%....        &&&&&&&&&&&&&&&&&&&&&&&&&&...",
"              ....                    +...                ##             .        $%#$   .         &&&&&&&&&&&&&&&&&&&&&&&&&&...",
"             .....                    ...                 #.            ..        ##               &&&&&&&&&&&&&&&&&&&&&&&&&&...",
"             .....                    ...                $$.            ..        .             &&&&&&&&&&&&&&&&&&&&&&&&&&&&&...",
"             ....                    ...                 $$             .         .    ..       &&&&&&&&&&&&&&&&&&&&&&&&&&&&&...",
"            .....                    ...                 $%            ..              ..       &&&&&&&&&&&&&&&&&&&&&&&&&&&&&.. ",
"            .....                    ...                .#$            ..              ..       &&&&&&&&&&&&&&&&&&&&&&&&&&&&&.. ",
"           .....                    ....                ..            ..         #     .       &&&&&&&&&&& && &&&&&&&  &&&&     ",
"           .....                    ...                ...            ..         #     .       &&&&&&&  &       &&&             ",
"           .....                   ....                ..             ..                        &&&&&                           ",
"  .+@     .....                    ...                 ..            ..         .                                               ",
"  .............                    .##                ...            .#         .                                               ",
"  ..............                  ..##                ...            ..         .              &&&&&                            ",
"    ..................            ....                ..             .         .      .        &&&&&                            ",
"    ....  .................      ...#                ..+            ..         .     ..        &&&&&                            ",
"   ....   ....  ..............++...#$                ..@            ..        .     ...        &&&&&                            ",
"  .....   ...   .... .............*==*               ..             .         .. .....        &&&&&&                            ",
"  ...........   ...   .... .......-;;>,......++@    ...            ..        ........         &&&&&&                            ",
"   ................  ....   ...  .$$##..................................#%%.........          &&&&&&                            ",
"         ................  ...   ...  ...  .............................#$$.......            &&&&&&                            ",
"                ............... .#.   ...  ... @..  .. .... .. .##.. ..  $ .....              &&&&&&                            ",
"                      ...........$#...... ...  ...  ..  ..  .  .# .. ........                 &&&&&&                            ",
"                              ...##..............................#.......                     &&&&&&&                           ",
"                                       .............................                          &&&&&&&                           ",
"                                                                                              &&&&&&&                           ",
"                                                                                              &&&&&&&                           ",
"                                                                                              &&&&&&&                           ",
"                                                                                              &&&&&&&                           ",
"                                                                                              &&&&&&&                           ",
"                                                                                             &&&&&&&&                           ",
"                                                                                             &&&&&&&&                           ",
"                                                                                             &&&&&&&&                           ",
"                                                                                             & &&&&&&                           ",
"                                                                                             && &&&&&                           ",
"                                                                                             ... ....                           ",
"                                                                                             .... ....                          ",
"                                                                                        '    )++)! )..                          ",
"                                                                                   .+))))    +))+)!'..                          ",
"                                                                             .......)+++)    +))++)~..                          ",
"                                                                        ............++))+   ~)++))+).                           ",
"                                                                   .................+))++  !)))+)))+..                          ",
"                                                               .....................))))+)+++)+)))))...                         ",
"                                                               .....................+))+++))))+)))))....                        ",
"                                                               .....................))++)))+)++))))).....                       ",
"                                                               .....................)))+))))+)))))))......                      ",
"                                                               ...    .    ..          )+)+++))))++).......                     ",
"                                                               ...    .    ..          +))+))+)))++)........                    ",
"                                                               ...    .    ..          +)+)    )~   ..    ..                    ",
"                                                               ...    .    ..          )))!    )     .    ...                   ",
"                                                               ...    .    ..    ..    )+)!    )    ..    ....                  ",
"                                                               ...    .    ...   ..   ')))+~!!!+!~!!..........                  ",
"                                                               ...    .    ..          ))))!!!)))!!)..........                  ",
"                                                               ...    .    ..          ....    .    ..    ....                  ",
"                                                               ...    .    ..          ....    .    ..    ....                  ",
"                                                               ...    .    ..    ..    ....    ..   ..    ....                  ",
"                                                               ... .. . .. ....  ..  .........................                  ",
"                                                               ...    .    ..          ....   ...   ..    ....                  ",
"                                                               ...    .    ..          ....    .    ..    ....                  ",
"                                                               ...    .    ..          ....    .     .    ....                  ",
"                                                               ...    .    ..          ....   ...   ..   .....                  ",
"                                                               ...............................................                  ",
"                                                               ...............................................                  ",
"                                                               ...............................................                  ",
"                                                               ...............................................                  ",
"                                                               ...............................................                  "};
