/* XPM */
static char * FreeFactoryIconTrans_10_128x128_xpm[] = {
"128 128 16 1",
" 	c None",
".	c #000000",
"+	c #010101",
"@	c #010100",
"#	c #010000",
"$	c #000101",
"%	c #000100",
"&	c #000202",
"*	c #000302",
"=	c #000201",
"-	c #000200",
";	c #000001",
">	c #000102",
",	c #000301",
"'	c #020100",
")	c #000402",
"                                                                                                                                ",
"                                                                                                                                ",
"                                                                                                                                ",
"                                                                                                                                ",
"                                                                           .                                                    ",
"                                                                       +.@#.@.....                                              ",
"                                                                        $$..$.. ....                                            ",
"                                                                         $$ $.%..  ...%                                         ",
"                                                                       &*     =.....  ...                                       ",
"                                                               %     ==         $... .....                                      ",
"                                                              %$    =*            ...   ....                                    ",
"                                                              $  ==              ......... ...                                  ",
"                                                             $= $=            %%.    ...   .....                                ",
"                                                            $$==             ..%       ....... .%                               ",
"                                                      %%.   $%             ..=          ...    .%%$                             ",
"                                                     .$%%%=$$            ...             %.. %%%%%..                            ",
"                                                   +%.%%$%$$$          =.$                $..%$%$  .%                           ",
"                                                   +  $.=*.%%        .%%                    %%%    ....                         ",
"                                                  .%   $$%..$      ..$                       $.  .......                        ",
"                                                  .    $.....    ..$                         =.......  ..                       ",
"                                                  .    %..=... $..                           $.....    ...                      ",
"                                                 .. $   %... ..%                           ....%%..   ......                    ",
"                                                 ..$     ......                         $.....   %...........                   ",
"                                                 %$      %..  .                       =....$$     %......  ...                  ",
"                                                 .-      %.  ...                    %....%         $...     ...$                ",
"                                                 .     % $......%                 $....$            $..     %....               ",
"                                                 %  @@%  ...   ..               $;...$               =.. %........              ",
"                                                .%=%     $.......$           &$%...$                  =............             ",
"                                                .%$       %.... ..          %%%..=                     =......   .$$            ",
"                                                 %       $$ ..  ..%      =$$.%.$                        $...      ...%          ",
"                                                 .       $  .. ...;     .%%..                            %.%%     %%$%%         ",
"                                                 .       .  ..... .= %.%.$%                               =%..  =%$%....        ",
"                                                 $    $$..   ..   ....$%$                                  $.$.$.........       ",
"                                                ;;   %=  +   ..  ....%&                                     =............%      ",
"                                                  $$%    %    .....%$                                        $......   ....     ",
"                                                 .$      .    .... %.                                         $...       ..%    ",
"                                                 %            .%%   .$                                         $%%       ....   ",
"                                                 .       .    $%   ...                                          $..    ........ ",
"                                                 .%      .     .......                                           %...%%%....... ",
"                                                 .%            ........                                          $.%.$%..$.%.%% ",
"                                                 ..    %...    ....   .=                                       $$.......;;..;   ",
"                                                     .%. %      ..    .$                                     .%.%%%%.%%%%$.     ",
"                                                 ..$$     .     ..   ...                                  =$%.%%.......%%       ",
"                                                  .       $     ........$                              =%%..........%%...       ",
"                                                  .=      $      ........                            $............%   %..       ",
"                                                  .       $      ..... ..=                        $%%.........$$                ",
"                                                  $=      %      ...    .$                     &>;%%.......%%                   ",
"                                                  $               .;    %$                   =.;;........%                      ",
"                ...                               .$     $%$      $$  %...%               =...;;......%=                        ",
"                  ..       .                          .%.$.       $..%....%             %....;;....$$                           ",
"                    ..      .                      .%%=   ..      %......=$&         $.......;;...                              ",
"                     ..                            .       .       %....$$.$       ...%......;;                                 ",
"                      .        .                   $       .       ==..   %$    %%.........%$                                   ",
"               .       .        .                  .       $       =..    %$&=%........%..                                      ",
"                        .        .                 .$      .        ..    %%%%.........                                         ",
"      .       .          .        .                 =      %        ..  ...$%%......$                                           ",
"      .       .      %   ..                         ;     %%        ........%$%%.$                                              ",
"      .       .      .    .        .%    $          $  %$.%%        .........$$                                                 ",
"      %       .      %     .      ..%    $$%        ..$$   =$        .........$                                                 ",
"      %       .      %%     .  ......  %    $       $                .....  ...                                                 ",
"      .       .             .  ..  ...$             %      $.        $%%     ..,                                                ",
"      .       .      ..     .. .    %.%       .            $          $$     ..$                              ...     ..        ",
"               .   %....     ...    ...%     .      $=     %          $.     ...                    ............................",
"       .       .........      ..    ...@    %   .   .                 ==$  $....%                  .............................",
"       .       .........      ..    .  ...$      @  .     ...         .=$%%$....%                  .............................",
"                . .....        .......    +       . .$ .$% $.          .=%.=.....                  .............................",
"        .        . .#..        ...   . .  %%      $%..      @          .%$.$$....%              ................................",
"         .       .. ...        .%    .  .   %   %%  .%     -           ;=$.%%....%              ................................",
"                  ....          .    .  .   .. .%   .%-    -            =%.=$   ..              ............................... ",
"     .                  ...     .$   $. .     .     $$==   =            ..%     %.%             ............................... ",
"     .       .. ..     ......   .$   ..       .+    $$ %.$              %$=     ...            ........... .. .......  ....     ",
"     .       .# .#    ........   .%=  %  .      $   ...%=               =$$      ..=           .......  .       ...             ",
"     .        .  .    .........  .$   @  %      .+ =.$                   ..     %..=            .....                           ",
"     .         .'#    .........  .%   -  %        %%                     ... .....%%                                            ",
"     .       ...@     ........$%  %   %  .$                              .........%%$                                           ",
"     .       .#... .  .%.......%  .   %  ..                               ......%=%$           .....                            ",
"      .      ......%@ ..+......$  $$$$.   %                               ....%;$%             .....                            ",
"      .        ...... %%%......$  .%      .                               ...$%%%              .....                            ",
"      .         .. .. ..##.....$   %   $  .                               $%%%%%               .....                            ",
"       .       ...    ...#.......  %      .                                $$%%               ......                            ",
"        .      .. .#   ..........  .   %  .                                %..                ......                            ",
"               .. .@   ........ .  .  $.  %                                .                  ......                            ",
"                . ..    ......+ .  .%$    .                                                   ......                            ",
"                        ......$    .%     .                                                   ......                            ",
"           .             ....;     ..     .                                                   ......                            ",
"           .        ..... ..  $    ..     .                                                   .......                           ",
"           .        .....  .       ..     .                                                   .......                           ",
"           .        ..             ..     .                                                   .......                           ",
"           .       ..     .        ..     .                                                   .......                           ",
"           %       .       %       ..     .                                                   .......                           ",
"            .      .%      .       ..    .                                                    .......                           ",
"            .       .      ..      ..    .                                                    .......                           ",
"            ..      ..      .      .                                                         ........                           ",
"             .      ..      ..     .    .                                                    ........                           ",
"             .      ..            ..                                                         ........                           ",
"              .      .            .    .                                                     . ......                           ",
"               ..    .            .   .                                                      .. .....                           ",
"                      .           .  .                                                       ... ....                           ",
"                      ..         .. .                                                        .... ....                          ",
"                       ..        ..                                                     )    =%%=, =..                          ",
"                        ..      .                                                  .%====    %==%=,)..                          ",
"                         .     .                                             .......=%%%=    %==%%=*..                          ",
"                                                                        ............%%==%   *=%%==%=.                           ",
"                       ... ..                                      .................%==%%  ,===%===%..                          ",
"                                                               .....................====%=%%%=%=====...                         ",
"                                                               .....................%==%%%====%=====....                        ",
"                                                               .....................==%%===%=%%=====.....                       ",
"                                                               .....................===%====%=======......                      ",
"                                                               ...    .    ..          =%=%%%====%%=.......                     ",
"                                                               ...    .    ..          %==%==%===%%=........                    ",
"                                                               ...    .    ..          %=%=    =*   ..    ..                    ",
"                                                               ...    .    ..          ===,    =     .    ...                   ",
"                                                               ...    .    ..    ..    =%=,    =    ..    ....                  ",
"                                                               ...    .    ...   ..   )===%*,,,%,*,,..........                  ",
"                                                               ...    .    ..          ====,,,===,,=..........                  ",
"                                                               ...    .    ..          ....    .    ..    ....                  ",
"                                                               ...    .    ..          ....    .    ..    ....                  ",
"                                                               ...    .    ..    ..    ....    ..   ..    ....                  ",
"                                                               ... .. . .. ....  ..  .........................                  ",
"                                                               ...    .    ..          ....   ...   ..    ....                  ",
"                                                               ...    .    ..          ....    .    ..    ....                  ",
"                                                               ...    .    ..          ....    .     .    ....                  ",
"                                                               ...    .    ..          ....   ...   ..   .....                  ",
"                                                               ...............................................                  ",
"                                                               ...............................................                  ",
"                                                               ...............................................                  ",
"                                                               ...............................................                  ",
"                                                               ...............................................                  "};
