/* XPM */
static char * FreeFactoryIconTrans_11_128x128_xpm[] = {
"128 128 7 1",
" 	c None",
".	c #000000",
"+	c #000402",
"@	c #000201",
"#	c #000100",
"$	c #000301",
"%	c #000302",
"                                                                                                                                ",
"                                                                                                                                ",
"                                                                                                                                ",
"                  .......                                            .......                                                    ",
"              ......   ......                                    ......   ......                                                ",
"            ...             ...                                ...             ...                                              ",
"          ...                  ..                            ..                  ...                                            ",
"         ..    ..         ..    ...                        ..     ..        ..     ..                                           ",
"        .    .               .    ..                      ..    .  .        .   .   ..                                          ",
"      ..                 .     .   ..                    ..   .             .         .                                         ",
"      .                         .   ..                  ..                         .   .                                        ",
"     .                               ..                ..           .      .        .   .                                       ",
"    .                   .             .                .            .      .         .  ..                                      ",
"   ..  .                .              .              .                               .  ..                                     ",
"   .  .                             .  ..            ..              .    .            .  .                                     ",
"  ..              .                  .  .            .               .                    ..                                    ",
"  .  .                               .  ..          ..                                  .  .                                    ",
" ..                .....              .  .          .                 .....   .            ..                                   ",
" .  .            ...   ...            .  .          .               ...   ...  .         .  .                                   ",
" .  .           ..       ..  .        .  ..        ..  .           .        ..  .        .  .                                   ",
" .             ..         ..             ..        .              .          .  .           .                                   ",
"..         ..  .           .  ..          .        .          .  ..           .  .          .                                   ",
"..            ..           ..             .        .             .            .             ..                                  ",
"..            ..            .             .        .             .            ..            ..                                  ",
".             .             .             .        .             .            ..            ..                                  ",
"..            .             .             .        .             .            ..            ..                                  ",
"..            ..            .             .        .             .            .             ..                                  ",
"..       ....  .           .  . ..        .        .        ...  ..           .  . ..       ..                                  ",
" .    ..       ..         ..  .     ..    .        .    ..        .          .. .     ..    .                                   ",
" .  .           ..       ..  .        .  ..        ..  .          ..        ..  .        .  .                                   ",
" .  .            ...    ..            .  .          .           .   ..    ...  .         .  .                                   ",
" ..            .   .....              .  .          .            .   ......   .            ..                                   ",
"  .  .          .         .             ..          ..            ..         .          .  .                                    ",
"  ..              .     ..           .  .           ..              ..     .            . ..                                    ",
"   .  .                             .  ................              .    .            .  .                                     ",
"   ..  .                .           .  .              .                               .  ..                                     ",
"    .                   .          .  ..              ..  .                .             .                                      ",
"     .                            .  ..                ..  .        .      .         .  .                                       ",
"     ..   .                      .  ..                  ..  .       .              ..  ..                                       ",
"      ..   .             .     ..  ..                    ..  .              .     .   ..                                        ",
"       ..   .            .    .   ..                      ..   .   .        .   ..   ..                                         ",
"        ...   ...         ...    ..                        ..   .. .        . ..   ..                                           ",
"          ..                   ...                          ...                   ..                                            ",
"           ...               ...                              ...               ..                                              ",
"             .....        ....                                  ....        ....                                                ",
"                ...........                                        ...........                                                  ",
"                ..                                                           .                                                  ",
"          ...   ..                                                           .                                                  ",
"          ........                                                           .        ........                                  ",
"          .  .  ..                                                           ..........      ..                                 ",
"          .  .  ..                                                           ..........      ..                                 ",
"          .  .  ..                                                           .       ..     ...                                 ",
"          .  .  ..                                                           .       ..      ..                                 ",
"          .  .  ..                                                           .       ..      ..                                 ",
"          .  .  ..                                                           .       ..     ...                                 ",
"          .  .  ..                                                           .       ..      ..                                 ",
"          . ......                                                           .       ..      ..                                 ",
"          ........                                                           .       ..      ..                                 ",
"                ..                                                           .       ..      ..                                 ",
"                ..                                                           .       ..      ..                                 ",
"                ..                                                           .       ..      ..                                 ",
"                ..                                                           .       ..      ..               ...     ..        ",
"                ..                                                           .       ..      ..     ............................",
"                ..                                                           .       ..      ..    .............................",
"                ..                                                           .       ..      ..    .............................",
"                ..                                                           .       ..      ..    .............................",
"                ..                                                           .       ..     ... ................................",
"                ..                                                           .       ..      .. ................................",
"                ..                                                           .       ..      .. ............................... ",
"                ..                                                           .       .......... ............................... ",
"                ..                                                           ..........      ............. .. .......  ....     ",
"                ..                                                           .       .................  .       ...             ",
"                ..                                                           .                  .....                           ",
"                ..                                                           .                                                  ",
"                ..                                                           .                                                  ",
"                ..                                                           .                 .....                            ",
"                ..                                                           .                 .....                            ",
"                ..                                                           .                 .....                            ",
"                ..                                                           .                 .....                            ",
"                ..                                                           .                ......                            ",
"                ..                                                           .                ......                            ",
"                ..                                                           .                ......                            ",
"                 .............................................................                ......                            ",
"                                                                                              ......                            ",
"                                                                                              ......                            ",
"                                                                                              .......                           ",
"                                                                                              .......                           ",
"                                                                                              .......                           ",
"                                                                                              .......                           ",
"                                                                                              .......                           ",
"                                                                                              .......                           ",
"                                                                                              .......                           ",
"                                                                                             ........                           ",
"                                                                                             ........                           ",
"                                                                                             ........                           ",
"                                                                                             . ......                           ",
"                                                                                             .. .....                           ",
"                                                                                             ... ....                           ",
"                                                                                             .... ....                          ",
"                                                                                        +    @##@$ @..                          ",
"                                                                                   .#@@@@    #@@#@$+..                          ",
"                                                                             .......@###@    #@@##@%..                          ",
"                                                                        ............##@@#   %@##@@#@.                           ",
"                                                                   .................#@@##  $@@@#@@@#..                          ",
"                                                               .....................@@@@#@###@#@@@@@...                         ",
"                                                               .....................#@@###@@@@#@@@@@....                        ",
"                                                               .....................@@##@@@#@##@@@@@.....                       ",
"                                                               .....................@@@#@@@@#@@@@@@@......                      ",
"                                                               ...    .    ..          @#@###@@@@##@.......                     ",
"                                                               ...    .    ..          #@@#@@#@@@##@........                    ",
"                                                               ...    .    ..          #@#@    @%   ..    ..                    ",
"                                                               ...    .    ..          @@@$    @     .    ...                   ",
"                                                               ...    .    ..    ..    @#@$    @    ..    ....                  ",
"                                                               ...    .    ...   ..   +@@@#%$$$#$%$$..........                  ",
"                                                               ...    .    ..          @@@@$$$@@@$$@..........                  ",
"                                                               ...    .    ..          ....    .    ..    ....                  ",
"                                                               ...    .    ..          ....    .    ..    ....                  ",
"                                                               ...    .    ..    ..    ....    ..   ..    ....                  ",
"                                                               ... .. . .. ....  ..  .........................                  ",
"                                                               ...    .    ..          ....   ...   ..    ....                  ",
"                                                               ...    .    ..          ....    .    ..    ....                  ",
"                                                               ...    .    ..          ....    .     .    ....                  ",
"                                                               ...    .    ..          ....   ...   ..   .....                  ",
"                                                               ...............................................                  ",
"                                                               ...............................................                  ",
"                                                               ...............................................                  ",
"                                                               ...............................................                  ",
"                                                               ...............................................                  "};
